<svg width="20.000000" height="45.000000" viewBox="0 0 20 45" fill="none" xmlns="http://www.w3.org/2000/svg" xmlns:xlink="http://www.w3.org/1999/xlink">
	<desc>
			Created with Pixso.
	</desc>
	<defs>
		<linearGradient x1="-0.500000" y1="22.399803" x2="19.900019" y2="22.399803" id="paint_linear_2201_519_0" gradientUnits="userSpaceOnUse">
			<stop stop-color="#F7941D"/>
			<stop offset="1.000000" stop-color="#27AAE1"/>
		</linearGradient>
	</defs>
	<path id="Vector" d="M1.29 42.19C1.29 41.39 1.39 40.69 1.29 39.89C1.2 39.09 1.5 38.79 2.39 38.79C6.79 38.79 11.2 38.79 15.7 38.79C16.2 38.79 16.79 38.79 17.29 38.79C17.89 38.79 18.1 38.99 18.1 39.59C18.1 40.49 18.1 41.29 18.1 42.19C18.1 42.89 17.89 43.19 17.2 43.19C14.7 43.19 12.2 43.19 9.79 43.19C9.1 43.19 8.39 43.19 7.7 43.19C5.89 43.19 4.1 43.19 2.29 43.19C1.5 43.19 1.29 42.89 1.29 42.19ZM2.39 35.89C4.5 31.29 5.6 26.39 5.5 21.29C5.5 20.49 5.7 20.19 6.6 20.19C8.79 20.29 11 20.19 13.2 20.19C13.79 20.19 14.1 20.39 14.1 20.99C14 26.29 15.1 31.39 17.29 36.19C17.39 36.39 17.39 36.59 17.5 36.89L2 36.89C2.1 36.49 2.2 36.19 2.39 35.89ZM14.6 16.19C15.39 16.19 16 16.49 15.89 17.29C15.89 18.09 15.29 18.39 14.6 18.39C13 18.39 11.29 18.39 9.7 18.39L4.89 18.39C4.1 18.39 3.5 18.09 3.5 17.29C3.5 16.39 4.1 16.19 4.89 16.19C6.39 16.19 7.89 16.19 9.5 16.19C11.1 16.19 12.79 16.19 14.6 16.19ZM7.79 8.69C8.39 7.49 9 6.29 9.7 4.89C10.39 6.29 11 7.59 11.7 8.79C12.29 9.99 12.5 10.09 13.7 9.69C14.7 9.39 15.79 8.99 16.79 8.69C16.89 8.79 16.89 8.79 17 8.89C16.2 10.59 15.29 12.29 14.39 13.89C14.29 14.09 13.89 14.29 13.6 14.29C11 14.29 8.39 14.29 5.79 14.29C5.5 14.29 5.2 14.19 5.1 13.99C4.2 12.29 3.39 10.59 2.39 8.59C3.7 8.99 4.7 9.39 5.7 9.69C6.2 9.89 6.5 9.99 6.79 9.99C7.1 9.89 7.29 9.59 7.79 8.69ZM8.7 0.09C7.89 0.49 7.39 1.59 7.89 2.29C8.6 3.29 8 3.99 7.6 4.79C7.2 5.59 6.79 6.29 6.39 7.09C6.2 7.59 5.89 7.69 5.39 7.49C3.89 6.99 2.5 6.49 1 6.09C0.6 5.99 -0.11 5.99 -0.3 6.29C-0.5 6.59 -0.5 7.29 -0.3 7.69C0.6 9.69 1.6 11.59 2.6 13.59C2.79 13.89 2.89 14.19 3 14.49C0.79 16.39 0.89 18.19 3.1 19.89C3.29 19.99 3.5 20.39 3.5 20.59C3.39 22.59 3.39 24.59 3.2 26.59C2.79 30.19 1.5 33.49 -0.11 36.69C-0.3 37.19 -0.5 37.69 -0.5 38.19C-0.5 40.09 -0.5 41.89 -0.5 43.79C-0.5 44.69 -0.11 44.99 0.7 44.99C6.7 44.99 12.7 44.99 18.7 44.99C19.6 44.99 19.89 44.59 19.89 43.79C19.89 42.19 19.89 40.49 19.89 38.89C19.89 38.09 19.7 37.29 19.39 36.59C17 31.69 15.7 26.59 15.89 21.09C15.89 20.49 16 20.09 16.6 19.69C17.1 19.39 17.5 18.79 17.7 18.29C18.2 16.79 17.7 15.49 16.29 14.59C17.5 12.19 18.6 9.99 19.7 7.69C19.89 7.29 19.79 6.69 19.6 6.39C19.39 6.19 18.79 6.09 18.39 6.19C17 6.59 15.6 7.09 14.29 7.59C13.6 7.89 13.1 7.79 12.79 6.99C12.39 5.99 11.89 5.09 11.39 4.09C11.1 3.59 11.1 3.19 11.39 2.69C11.89 1.89 11.7 0.89 11 0.29C10.6 -0.01 10.2 -0.21 9.7 -0.21C9.39 -0.21 9 -0.11 8.7 0.09Z" fill="url(#paint_linear_2201_519_0)" fill-opacity="1.000000" fill-rule="nonzero"/>
</svg>
