<svg width="27.000000" height="43.000000" viewBox="0 0 27 43" fill="none" xmlns="http://www.w3.org/2000/svg" xmlns:xlink="http://www.w3.org/1999/xlink">
	<desc>
			Created with Pixso.
	</desc>
	<defs>
		<linearGradient x1="0.399902" y1="21.149986" x2="25.899897" y2="21.149986" id="paint_linear_2201_527_0" gradientUnits="userSpaceOnUse">
			<stop stop-color="#F7941D"/>
			<stop offset="1.000000" stop-color="#27AAE1"/>
		</linearGradient>
		<linearGradient x1="0.000000" y1="21.249998" x2="26.139259" y2="21.249998" id="paint_linear_2201_528_0" gradientUnits="userSpaceOnUse">
			<stop stop-color="#F7941D"/>
			<stop offset="1.000000" stop-color="#27AAE1"/>
		</linearGradient>
	</defs>
	<path id="Vector" d="M12.29 14.8C12.29 14.8 12.1 15.2 12.1 15.9C12.1 16.6 12.29 17.6 13.29 18.7C14.29 19.9 15.79 20.2 17 20.2C18.1 20.2 18.89 20 18.89 20L19.29 19.9L23.6 27.1L20.1 32.59L22.5 32.59L22.6 32.59C22.6 32.59 25.89 33.3 25.89 36.59L25.79 36.59L25.89 36.59L25.79 36.59L25.89 36.59C25.89 39.5 25.89 41.5 25.89 41.5L25.89 42L1 42L1 36.9C1 36.9 1.1 32.59 4.79 32.59L4.79 33L4.79 32.59L4.79 33L4.79 32.59L6.89 32.59L6.89 29L7.39 29L7.19 29.5C7.1 29.5 0.39 26.9 0.39 15.3C0.5 3.5 13.29 0.29 17 0.29L17 0.7L17 0.29L17 0.7L17 0.29L17.5 0.29L17.6 4.79L25.19 13.8L25.19 13.9C25.19 13.9 25.69 14.8 25.69 15.8C25.69 16.5 25.39 17.4 24.39 17.79C24 18 23.5 18 23.1 18C21.5 18 20.1 16.9 19.19 15.5L19.6 15.2L19.89 15.6C19.89 15.6 18.1 17.29 15.69 17.29C15.39 17.29 15 17.29 14.6 17.2C12.5 16.7 10.79 14.8 10.79 12.1C10.79 11.1 11 9.89 11.6 8.7L12.5 9.09C12 10.2 11.79 11.2 11.79 12.1C11.79 14.4 13.19 15.9 14.79 16.29C15.1 16.4 15.39 16.4 15.69 16.4C17.6 16.4 19.19 15 19.19 15L19.6 14.6L19.89 15.1C20.69 16.29 21.79 17.1 23 17.1C23.29 17.1 23.6 17 23.89 16.9C24.5 16.7 24.6 16.4 24.6 15.9C24.6 15.2 24.19 14.5 24.19 14.5L24.6 14.3L24.19 14.6L16.39 5.39L16.29 1L16.79 1L16.79 1.5C13.39 1.5 1.19 4.59 1.19 15.5C1.19 26.6 7.39 28.7 7.39 28.7L7.69 28.8L7.69 33.8L4.6 33.8L4.6 33.3L4.6 33.8C1.89 33.7 1.79 37.2 1.79 37.2L1.29 37.2L1.79 37.2L1.79 41.3L25.19 41.3L25.19 41.8L24.69 41.8C24.69 41.8 24.69 39.8 24.69 36.9L25.19 36.9L24.69 36.9C24.69 34.4 22.19 33.9 22.19 33.9L22.29 33.4L22.29 33.9L18.1 33.9L22.19 27.4L18.39 21L18.79 20.7L18.89 21.2C18.89 21.2 18 21.5 16.79 21.5C15.39 21.5 13.6 21.2 12.29 19.6C11.19 18.29 10.89 17 10.89 16.1C10.89 15.1 11.19 14.5 11.29 14.5L12.29 14.8Z" fill="url(#paint_linear_2201_527_0)" fill-opacity="1.000000" fill-rule="nonzero"/>
	<path id="Vector" d="M25.89 42.5L1 42.5C0.89 42.5 0.79 42.5 0.7 42.4C0.6 42.3 0.6 42.2 0.6 42.1L0.6 37C0.6 35.7 1.39 32.4 4.79 32.3L6.5 32.3L6.5 29.6C4.7 28.7 0 25.2 0 15.4C0.1 3.7 12.5 0 17 0L17.5 0C17.6 0 17.7 0 17.79 0.1C17.89 0.2 17.89 0.3 17.89 0.4L18 4.79L25.5 13.7L25.6 13.8C25.89 14.5 26.1 15.2 26.1 15.9C26.1 16.79 25.6 17.9 24.5 18.2C24 18.4 23.6 18.4 23.1 18.4C21.79 18.4 20.5 17.7 19.39 16.5C18.6 17.1 17.29 17.7 15.7 17.7C15.29 17.7 14.89 17.7 14.5 17.6C13.79 17.4 13.1 17.1 12.5 16.7C12.7 17.29 13 17.9 13.5 18.6C14.29 19.5 15.39 20 16.89 20C17.5 20 18 19.9 18.6 19.79L19 19.7C19.2 19.7 19.29 19.7 19.39 19.9L23.7 27.1C23.79 27.2 23.79 27.4 23.7 27.5L20.6 32.4L22.39 32.4L22.5 32.4C22.89 32.4 26.1 33.4 26.1 36.8L26.1 42.2C26.2 42.3 26.1 42.5 25.89 42.5ZM1.29 41.7L24.5 41.7L24.5 41.6L24.5 41.5L1.89 41.5C1.79 41.5 1.7 41.5 1.6 41.4C1.5 41.3 1.5 41.2 1.5 41.1L1.5 37.4L1.39 37.4L1.29 37.4L1.29 41.7ZM25.2 40.7L25.29 40.7L25.39 40.7L25.39 37L25.29 37L25.2 37L25.2 40.7ZM2.29 40.7L24.5 40.7L24.5 36.7C24.5 34.9 22.89 34.2 22.29 34.09L18.2 34.09C18.1 34.09 17.89 34 17.89 33.9C17.79 33.8 17.79 33.59 17.89 33.5L21.89 27.2L18.5 21.6C18.1 21.7 17.6 21.7 16.89 21.7C15.5 21.7 13.5 21.3 12.1 19.7C10.89 18.2 10.6 16.79 10.6 16C10.6 15.4 10.7 15 10.79 14.7C10.5 13.9 10.29 13.1 10.29 12.2C10.29 11.1 10.6 9.9 11.1 8.7C11.2 8.5 11.39 8.39 11.6 8.5L12.5 8.9C12.6 8.9 12.7 9 12.7 9.1C12.7 9.2 12.7 9.3 12.7 9.4C12.29 10.4 12.1 11.4 12.1 12.3C12.1 14.6 13.5 15.8 14.79 16.1C15.1 16.2 15.29 16.2 15.6 16.2C16.6 16.2 17.7 15.8 18.79 14.9L19.2 14.5C19.29 14.4 19.39 14.4 19.5 14.4C19.6 14.4 19.7 14.5 19.79 14.6L20.1 15.1C20.89 16.29 21.89 17 22.89 17C23.2 17 23.39 17 23.7 16.9C24.1 16.79 24.1 16.6 24.1 16.2C24.1 15.9 24 15.5 23.79 15L16.1 5.9C16 5.8 16 5.8 16 5.7L16 2.2C11.5 2.7 1.6 6.2 1.6 15.8C1.6 25.2 6.1 28 7.5 28.7C7.5 28.7 7.5 28.7 7.6 28.7L7.89 28.8C8 28.9 8.1 29 8.1 29.2L8.1 34.2C8.1 34.4 7.89 34.59 7.7 34.59L4.6 34.59C2.5 34.59 2.2 37.09 2.2 37.59L2.29 40.7ZM4.39 33C1.89 33.3 1.39 35.7 1.29 36.59L1.39 36.59L1.6 36.59C1.7 35.7 2.2 33.4 4.39 33.3L4.39 33.2C4.39 33.09 4.39 33.09 4.39 33ZM25.2 36.3L25.29 36.3L25.39 36.3C25.2 34.2 23.5 33.4 22.79 33.09L22.79 33.3C24 33.8 25.1 34.8 25.2 36.3ZM18.89 33.3L22 33.3L22 33.09L20 33.09C19.89 33.09 19.7 33 19.7 32.9C19.6 32.8 19.6 32.59 19.7 32.5L23 27.2L19.39 21.2L19.39 21.3C19.39 21.4 19.29 21.4 19.29 21.4L22.7 27C22.79 27.1 22.79 27.3 22.7 27.4L18.89 33.3ZM5.2 33.3L7.5 33.3L7.5 29.8C7.39 29.9 7.29 29.9 7.2 29.9L7.2 32.7C7.2 32.9 7 33.09 6.79 33.09L5.1 33.09L5.1 33.2L5.2 33.3ZM16.2 0.79C12.29 1.2 0.89 4.3 0.79 15.4C0.79 24.5 4.89 27.9 6.6 28.9C6.7 28.8 6.79 28.8 6.89 28.8C5.1 27.8 1 24.5 1 15.5C1 5.39 11.5 1.6 16.1 1.2L16.2 0.79ZM11.5 15.5C11.5 15.6 11.5 15.7 11.5 15.9C11.5 16.6 11.7 17.79 12.79 19.1C14 20.6 15.7 20.9 17 20.9C17.5 20.9 17.89 20.9 18.2 20.8C18.2 20.7 18.2 20.6 18.29 20.5C17.89 20.6 17.39 20.6 17 20.6C15.29 20.6 13.89 20 13 18.9C12.2 17.9 11.7 16.79 11.7 15.8L11.7 15.7C11.6 15.7 11.6 15.6 11.5 15.5ZM19.89 16C20.6 16.79 21.6 17.6 23 17.6C23.39 17.6 23.79 17.5 24.2 17.4C25 17.1 25.29 16.4 25.29 15.8C25.29 15.4 25.2 14.9 25 14.4L24.79 14.6C24.89 14.9 25.1 15.4 25 15.8C25 16.29 24.89 16.9 24.1 17.2C23.7 17.29 23.29 17.4 23 17.4C22 17.4 21 16.9 20.1 15.9L20 16C20 15.9 20 16 19.89 16ZM12.5 15.6C13.1 16.29 13.89 16.7 14.7 16.79C15 16.9 15.39 16.9 15.7 16.9C17 16.9 18.2 16.29 18.89 15.8L18.79 15.7L18.79 15.6C17.79 16.29 16.7 16.6 15.7 16.6C15.39 16.6 15.1 16.6 14.79 16.5C14 16.29 13.2 15.9 12.6 15.2C12.5 15.3 12.5 15.4 12.5 15.6ZM11.5 13.9C11.6 13.9 11.6 13.9 11.7 14L11.79 14.1C11.6 13.5 11.39 12.9 11.39 12.1C11.39 11.2 11.6 10.3 12 9.29L11.79 9.2C11.39 10.2 11.2 11.2 11.2 12.1C11.2 12.7 11.29 13.4 11.5 13.9ZM17 5.1L24.39 13.9L24.6 13.8L17.29 5.1C17.2 5 17.2 5 17.2 4.9L17.2 1.7C17.1 1.7 17 1.7 16.89 1.7L17 5.1Z" fill="url(#paint_linear_2201_528_0)" fill-opacity="1.000000" fill-rule="nonzero"/>
</svg>
