<svg width="26.000000" height="41.000000" viewBox="0 0 26 41" fill="none" xmlns="http://www.w3.org/2000/svg" xmlns:xlink="http://www.w3.org/1999/xlink">
	<desc>
			Created with Pixso.
	</desc>
	<defs>
		<linearGradient x1="0.000000" y1="20.207600" x2="25.799982" y2="20.207600" id="paint_linear_2201_514_0" gradientUnits="userSpaceOnUse">
			<stop stop-color="#F7941D"/>
			<stop offset="1.000000" stop-color="#27AAE1"/>
		</linearGradient>
	</defs>
	<path id="Vector" d="M1.6 37.21L23.79 37.21L23.79 39.11L1.6 39.11L1.6 37.21ZM3.29 34.41C3.29 33.71 3.39 33.31 4.29 33.31C9.89 33.31 15.5 33.31 21.1 33.31C22 33.31 22.1 33.71 22.1 34.41C22.1 35.11 21.89 35.41 21.1 35.41C18.29 35.41 15.5 35.41 12.7 35.41C9.89 35.41 7.1 35.41 4.29 35.41C3.6 35.41 3.29 35.21 3.29 34.41ZM15.7 14.91C16.39 14.91 16.6 15.21 16.6 15.81C16.6 19.41 16.7 23.01 17.7 26.41C18.1 27.91 18.7 29.31 19.2 30.81C19.29 31.01 19.39 31.31 19.5 31.61L6 31.61C6.1 31.31 6.2 31.11 6.29 30.91C7.79 27.71 8.5 24.41 8.7 20.91C8.79 19.21 8.89 17.41 8.89 15.71C8.89 15.11 9.1 14.91 9.7 14.91C10.79 14.91 11.79 14.91 12.89 14.91C13.79 14.91 14.7 14.91 15.7 14.91ZM5.2 12.31C5.2 11.71 5.1 11.11 6.1 11.11C10.5 11.11 14.89 11.11 19.29 11.11C20.1 11.11 20.2 11.41 20.2 12.11C20.2 12.71 20.29 13.21 19.29 13.21C17.1 13.11 14.79 13.21 12.6 13.21C10.39 13.21 8.29 13.21 6.1 13.21C6.1 13.21 6.1 13.21 6 13.21C5.39 13.21 5.2 13.01 5.2 12.31ZM3.29 8.51C3.29 6.61 3.39 4.71 3.29 2.81C3.29 1.91 3.79 1.91 4.39 1.91C5 1.91 5.5 2.01 5.39 2.81C5.29 3.41 5.39 4.11 5.39 4.71C5.39 5.31 5.7 5.61 6.29 5.61C7.5 5.61 8.7 5.61 9.89 5.61C10.5 5.61 10.79 5.31 10.79 4.71C10.79 4.01 10.79 3.31 10.79 2.61C10.79 2.11 11 1.91 11.5 1.91C12.39 1.91 13.2 1.91 14.1 1.91C14.6 1.91 14.7 2.11 14.7 2.61C14.7 3.31 14.7 4.01 14.7 4.71C14.7 5.31 15 5.61 15.6 5.61C16.79 5.61 18 5.61 19.2 5.61C19.79 5.61 20.1 5.31 20.1 4.71C20.1 4.01 20.1 3.41 20.1 2.71C20 1.91 20.6 1.91 21.1 1.91C21.2 1.91 21.2 1.91 21.29 1.91C21.79 1.91 22.2 1.91 22.2 2.71C22.2 4.71 22.2 6.71 22.2 8.71C22.2 9.31 22 9.51 21.39 9.51C18.5 9.51 15.7 9.51 12.79 9.51C12 9.51 11.2 9.51 10.39 9.51C8.39 9.51 6.39 9.51 4.29 9.51C4.29 9.51 4.29 9.51 4.2 9.51C3.5 9.51 3.29 9.21 3.29 8.51ZM18.29 1.41L18.29 3.81L16.29 3.81C16.29 2.91 16.29 2.11 16.29 1.31C16.29 0.51 16 0.21 15.2 0.21C13.5 0.21 11.79 0.21 10.2 0.21C9.39 0.21 9.1 0.51 9.1 1.31C9.1 2.11 9.1 3.01 9.1 3.81L7.1 3.81C7.1 2.91 7.1 2.11 7.1 1.21C7.1 0.51 6.79 0.11 6 0.11C5.39 0.11 4.7 0.11 4.1 0.11C3.7 0.11 3.39 0.11 3 0.11C1.89 0.11 1.7 0.41 1.7 1.41C1.7 4.11 1.7 6.91 1.7 9.61C1.7 10.71 1.79 10.91 2.89 10.91C3.39 10.91 3.6 11.11 3.6 11.71C3.6 12.31 3.6 13.01 3.6 13.61C3.6 14.41 4 14.71 4.7 14.71C5.5 14.71 6.29 14.71 7.1 14.71C7.1 16.81 7.2 18.71 7.1 20.71C6.89 24.11 6.2 27.41 4.6 30.41C4.2 31.11 3.79 31.51 3 31.41C2.1 31.31 1.79 31.71 1.79 32.61C1.79 33.21 1.79 33.81 1.79 34.31C1.79 34.91 1.7 35.21 1 35.11C0.29 35.01 0 35.41 0 36.11C0 37.21 0 38.21 0 39.31C0 40.11 0.29 40.41 1.1 40.41C2.89 40.41 4.7 40.41 6.6 40.41C12.6 40.41 18.5 40.41 24.5 40.41C25.6 40.41 25.79 40.21 25.79 39.11C25.79 38.11 25.79 37.21 25.79 36.21C25.79 35.41 25.6 34.91 24.7 35.01C24.2 35.01 24 34.81 24 34.31C24 33.61 24 33.01 24 32.31C24 31.61 23.6 31.21 23 31.31C21.79 31.51 21.39 30.81 21 29.91C20.7 29.31 20.39 28.61 20.2 28.01C18.89 24.61 18.6 21.01 18.5 17.41C18.5 16.51 18.5 15.51 18.5 14.51C19.39 14.51 20.2 14.51 21.1 14.51C21.79 14.51 22.2 14.21 22.2 13.41C22.2 12.81 22.2 12.21 22.2 11.61C22.2 11.01 22.39 10.71 23 10.81C23.7 10.91 24.1 10.51 24.1 9.81C24.1 6.91 24.1 3.91 24.1 1.01C24.1 0.31 23.79 -0.09 23 0.01C21.89 0.01 20.89 0.01 19.79 0.01C19.79 0.01 19.79 0.01 19.7 0.01C18.6 0.21 18.29 0.71 18.29 1.41Z" fill="url(#paint_linear_2201_514_0)" fill-opacity="1.000000" fill-rule="nonzero"/>
</svg>
