<svg width="55.000000" height="76.000000" viewBox="0 0 55 76" fill="none" xmlns="http://www.w3.org/2000/svg" xmlns:xlink="http://www.w3.org/1999/xlink">
	<desc>
			Created with Pixso.
	</desc>
	<defs>
		<linearGradient x1="18.660652" y1="24.888992" x2="49.054893" y2="42.437119" id="paint_linear_2201_576_0" gradientUnits="userSpaceOnUse">
			<stop stop-color="#F7941D"/>
			<stop offset="1.000000" stop-color="#27AAE1"/>
		</linearGradient>
	</defs>
	<path id="Vector" d="M4.37 55.93C5.08 54.69 6.01 53.4 6.59 52.08C7.23 50.98 7.74 50.72 8.98 51.44C12.69 53.58 16.4 55.73 20.12 57.87C23.83 60.02 27.41 62.08 31.12 64.22C32.22 64.86 32.4 65.51 31.76 66.61C30.91 67.77 30.25 69.22 29.54 70.46C29.06 71.29 28.63 71.4 27.8 70.93C20.24 66.56 12.67 62.19 4.97 57.75C4.01 57.19 3.89 56.76 4.37 55.93ZM40.76 32.93C42.13 33.72 42.17 34.29 41.45 35.53C38.06 41.09 35.3 46.83 33.99 53.23C33.56 55.55 33.41 58.03 33.13 60.43C33.11 60.79 32.95 61.06 32.85 61.55L10.7 48.77C10.86 48.49 11.02 48.22 11.32 48.02C18.7 43.48 23.8 36.89 28.09 29.46C29.83 26.43 29.48 26.41 31.68 27.68C31.95 27.84 32.37 28.08 32.78 28.32C33.88 28.95 34.84 29.51 35.94 30.15C36.63 30.54 37.32 30.94 38.01 31.34C38.69 31.73 39.66 32.29 40.76 32.93ZM29.13 20.34C29.63 19.16 30.77 19.09 32.28 19.96C37.1 22.74 41.77 25.44 46.59 28.22C48.1 29.1 48.47 30.04 47.84 31.14C46.91 32.44 45.78 32.16 44.68 31.52C42.35 30.17 40.01 28.82 37.67 27.47C35.33 26.12 32.99 24.77 30.65 23.42C29.28 22.63 28.47 21.8 29.13 20.34ZM34.94 16C36.76 10.63 43.52 5.91 49.27 6.11C49.62 6.13 50.09 6.59 50.29 6.88C52.65 12.65 52.96 18.15 49.15 23.47C47.98 25.18 47.76 25.23 45.98 24.2C44.33 23.25 42.68 22.3 41.02 21.34C39.24 20.31 37.45 19.28 35.66 18.25L35.52 18.17C34.7 17.69 34.6 16.9 34.94 16ZM48.99 1.19C48.48 2.72 47.61 2.95 46.39 3.16C39.68 4.61 34.56 8.08 32.03 14.68C31.61 15.73 31.24 16.06 30.23 16.21C27 16.73 24.88 20.09 26.12 23.01C26.89 24.55 26.6 25.67 25.67 26.97C25.36 27.52 24.96 28.21 24.56 28.89C21.07 34.95 17.02 40.68 10.98 44.16C6.56 46.74 3.64 50.19 1.59 54.7C1.2 55.38 0.88 55.93 0.48 56.62C-0.39 58.14 -0.22 58.79 1.3 59.66C4.05 61.25 6.94 62.92 9.69 64.5C11.34 65.46 12.85 66.33 14.5 67.28C18.9 69.82 23.3 72.37 27.71 74.91C29.22 75.78 29.87 75.61 30.74 74.09C31.78 72.3 32.75 70.3 33.92 68.59C35.41 66.33 35.97 64.09 35.92 61.31C35.85 51.91 39.82 43.76 44.62 36.07C44.78 35.8 45.3 35.55 45.65 35.57C50.16 35.06 51.97 32.25 50.51 28.1C50.39 27.67 50.44 26.96 50.73 26.76C55.41 21.21 55.93 14.91 53.77 8.16C53.34 7 53.11 6.13 54.18 4.91C55.54 3.5 55.04 1.19 53.25 0.16C51.7 -1.28 49.54 -0.7 48.99 1.19Z" fill="url(#paint_linear_2201_576_0)" fill-opacity="1.000000" fill-rule="nonzero"/>
</svg>
