<svg width="80.000000" height="101.000000" viewBox="0 0 80 101" fill="none" xmlns="http://www.w3.org/2000/svg" xmlns:xlink="http://www.w3.org/1999/xlink">
	<desc>
			Created with Pixso.
	</desc>
	<defs>
		<linearGradient x1="22.384407" y1="34.135925" x2="63.312386" y2="55.628098" id="paint_linear_2201_574_0" gradientUnits="userSpaceOnUse">
			<stop stop-color="#F7941D"/>
			<stop offset="1.000000" stop-color="#27AAE1"/>
		</linearGradient>
	</defs>
	<path id="Vector" d="M5.13 75.75C5.97 74.15 6.91 72.85 7.55 71.14C8.2 69.43 9.11 69.14 10.92 70.09C19.75 74.72 28.57 79.36 37.6 84.1C38.61 84.63 39.81 85.26 40.81 85.79C42.02 86.42 42.21 87.03 41.58 88.23C40.63 90.04 39.78 91.65 38.84 93.45C38.1 94.86 37.38 95.25 35.98 94.51C30.96 91.88 25.95 89.24 21.13 86.71C19.73 85.98 18.32 85.24 16.92 84.5C13.31 82.6 9.69 80.71 6.08 78.81C4.48 77.97 4.39 77.16 5.13 75.75ZM13.98 64.27C23.03 57.25 30.4 48.58 35.58 38.25C36.42 36.64 37.14 36.25 38.94 37.2C43.25 39.72 47.77 41.83 52.18 44.15C53.39 44.78 53.78 45.5 53.15 46.7C47.36 57.23 44.2 68.62 43.55 80.57C43.54 81.08 43.33 81.48 43.22 82.19L12.12 65.86C12.74 65.16 13.26 64.66 13.98 64.27ZM59.21 37.6C60.81 38.44 61.7 39.68 60.66 41.18C59.81 42.78 58.29 42.75 56.89 42.01C53.68 40.33 50.27 38.54 47.06 36.85L37.43 31.79C35.82 30.95 34.93 29.72 35.78 28.11C36.73 26.31 38.14 26.54 39.75 27.38C42.75 28.96 45.76 30.54 48.97 32.23C52.18 33.91 55.59 35.7 59.21 37.6ZM53.46 15.39C55.93 13.61 58.4 11.84 61.28 9.77C61.21 13.31 61.04 16.55 61.18 19.7C61.12 22.74 61.42 23.15 64.25 23.61C66.57 24.06 69.2 24.42 71.52 24.87C71.62 25.18 71.62 25.18 71.71 25.48C68.32 28.05 64.72 30.51 61.23 32.78C60.82 33.07 59.8 33.05 59.2 32.74C53.99 30 48.77 27.26 43.55 24.52C42.95 24.2 42.45 23.68 42.46 23.18C42.45 18.82 42.64 14.57 42.74 9.5C44.92 11.67 46.51 13.53 48.2 15.18C48.99 16.11 49.49 16.63 50.09 16.94C50.8 17.06 51.51 16.67 53.46 15.39ZM64.33 -0.92C62.3 -0.96 60.14 0.72 60.41 2.65C60.76 5.4 58.82 6.17 57.17 7.35C55.53 8.54 53.99 9.52 52.34 10.7C51.41 11.5 50.71 11.38 49.91 10.45C47.43 7.87 45.15 5.39 42.56 3.01C41.86 2.39 40.46 1.65 39.74 2.04C39.03 2.43 38.29 3.84 38.27 4.85C37.97 9.81 37.97 14.68 37.87 19.74C37.96 20.55 37.84 21.26 37.72 21.97C31.31 23.46 29.61 27.18 32.24 32.91C32.53 33.32 32.51 34.33 32.3 34.73C29.99 38.64 27.89 42.65 25.38 46.46C20.78 53.26 14.7 58.51 8.12 63.24C7.19 64.03 6.26 64.83 5.73 65.83C3.73 69.64 1.84 73.25 -0.17 77.07C-1.11 78.87 -0.63 79.89 0.98 80.74C13.01 87.06 25.05 93.38 37.09 99.7C38.9 100.65 39.92 100.16 40.76 98.56C42.45 95.35 44.24 91.94 45.92 88.73C46.77 87.12 47.21 85.31 47.34 83.59C47.69 71.23 50.46 59.62 56.65 48.8C57.28 47.6 57.91 46.9 59.53 46.73C60.85 46.65 62.29 45.87 63.21 45.08C65.8 42.6 66.16 39.46 64.3 36.18C69.24 32.63 73.76 29.38 78.39 25.92C79.22 25.33 79.65 24.02 79.56 23.21C79.37 22.59 78.27 21.76 77.37 21.54C74.14 20.87 70.8 20.4 67.66 20.03C65.94 19.89 65.05 19.17 65.29 17.25C65.54 14.82 65.48 12.49 65.53 9.95C65.46 8.63 65.88 7.83 67.01 7.14C68.85 6.07 69.51 3.85 68.73 1.91C68.25 0.88 67.66 0.06 66.65 -0.46C66.05 -0.78 65.14 -1 64.33 -0.92Z" fill="url(#paint_linear_2201_574_0)" fill-opacity="1.000000" fill-rule="nonzero"/>
</svg>
