<svg width="41.000000" height="67.000000" viewBox="0 0 41 67" fill="none" xmlns="http://www.w3.org/2000/svg" xmlns:xlink="http://www.w3.org/1999/xlink">
	<desc>
			Created with Pixso.
	</desc>
	<defs>
		<linearGradient x1="0.000000" y1="33.209591" x2="40.850548" y2="33.209591" id="paint_linear_2201_579_0" gradientUnits="userSpaceOnUse">
			<stop stop-color="#F7941D"/>
			<stop offset="1.000000" stop-color="#27AAE1"/>
		</linearGradient>
	</defs>
	<path id="Vector" d="M40.47 66.41L1.56 66.41C1.4 66.41 1.25 66.41 1.09 66.26C0.93 66.1 0.93 65.95 0.93 65.79L0.93 57.82C0.93 55.79 2.18 50.63 7.5 50.47L10.15 50.47L10.15 46.25C7.34 44.85 0 39.38 0 24.06C0.15 5.78 19.53 0 26.56 0L27.34 0C27.5 0 27.66 0 27.81 0.15C27.97 0.31 27.97 0.46 27.97 0.62L28.13 7.5L39.85 21.41L40 21.56C40.47 22.66 40.78 23.75 40.78 24.84C40.78 26.25 40 27.97 38.28 28.44C37.5 28.75 36.88 28.75 36.1 28.75C34.06 28.75 32.03 27.66 30.31 25.78C29.06 26.72 27.03 27.66 24.53 27.66C23.91 27.66 23.28 27.66 22.66 27.5C21.56 27.19 20.47 26.72 19.53 26.09C19.84 27.03 20.31 27.97 21.09 29.06C22.34 30.47 24.06 31.25 26.41 31.25C27.34 31.25 28.13 31.09 29.06 30.94L29.69 30.78C30 30.78 30.16 30.78 30.31 31.09L37.03 42.35C37.19 42.5 37.19 42.82 37.03 42.97L32.19 50.63L35 50.63L35.16 50.63C35.78 50.63 40.78 52.19 40.78 57.51L40.78 65.95C40.94 66.1 40.78 66.41 40.47 66.41ZM2.03 65.16L38.28 65.16L38.28 65.01L38.28 64.85L2.96 64.85C2.81 64.85 2.65 64.85 2.5 64.7C2.34 64.54 2.34 64.38 2.34 64.23L2.34 58.44L2.18 58.44L2.03 58.44L2.03 65.16ZM39.38 63.6L39.53 63.6L39.69 63.6L39.69 57.82L39.53 57.82L39.38 57.82L39.38 63.6ZM3.59 63.6L38.28 63.6L38.28 57.35C38.28 54.54 35.78 53.44 34.85 53.29L28.44 53.29C28.28 53.29 27.97 53.13 27.97 52.97C27.81 52.82 27.81 52.51 27.97 52.35L34.22 42.5L28.91 33.75C28.28 33.91 27.5 33.91 26.41 33.91C24.22 33.91 21.09 33.28 18.91 30.78C17.03 28.44 16.56 26.25 16.56 25C16.56 24.06 16.72 23.44 16.87 22.97C16.4 21.72 16.09 20.47 16.09 19.06C16.09 17.34 16.56 15.47 17.34 13.59C17.5 13.28 17.81 13.12 18.12 13.28L19.53 13.9C19.69 13.9 19.84 14.06 19.84 14.22C19.84 14.37 19.84 14.53 19.84 14.69C19.22 16.25 18.91 17.81 18.91 19.22C18.91 22.81 21.09 24.69 23.12 25.16C23.59 25.31 23.91 25.31 24.37 25.31C25.94 25.31 27.66 24.69 29.38 23.28L30 22.66C30.16 22.5 30.31 22.5 30.47 22.5C30.63 22.5 30.78 22.66 30.94 22.81L31.41 23.59C32.66 25.47 34.22 26.56 35.78 26.56C36.25 26.56 36.56 26.56 37.03 26.41C37.66 26.25 37.66 25.94 37.66 25.31C37.66 24.84 37.5 24.22 37.19 23.44L25.16 9.22C25 9.06 25 9.06 25 8.9L25 3.43C17.97 4.21 2.5 9.68 2.5 24.69C2.5 39.38 9.53 43.75 11.72 44.85C11.72 44.85 11.72 44.85 11.87 44.85L12.34 45C12.5 45.16 12.65 45.32 12.65 45.63L12.65 53.44C12.65 53.76 12.34 54.07 12.03 54.07L7.18 54.07C3.9 54.07 3.43 57.98 3.43 58.76L3.59 63.6ZM6.87 51.57C2.96 52.04 2.18 55.79 2.03 57.19L2.18 57.19L2.5 57.19C2.65 55.79 3.43 52.19 6.87 52.04L6.87 51.88C6.87 51.72 6.87 51.72 6.87 51.57ZM39.38 56.72L39.53 56.72L39.69 56.72C39.38 53.44 36.72 52.19 35.63 51.72L35.63 52.04C37.5 52.82 39.22 54.38 39.38 56.72ZM29.53 52.04L34.38 52.04L34.38 51.72L31.25 51.72C31.09 51.72 30.78 51.57 30.78 51.41C30.63 51.26 30.63 50.94 30.78 50.79L35.94 42.5L30.31 33.13L30.31 33.28C30.31 33.44 30.16 33.44 30.16 33.44L35.47 42.19C35.63 42.35 35.63 42.66 35.47 42.82L29.53 52.04ZM8.12 52.04L11.72 52.04L11.72 46.57C11.56 46.72 11.4 46.72 11.25 46.72L11.25 51.1C11.25 51.41 10.93 51.72 10.62 51.72L7.97 51.72L7.97 51.88L8.12 52.04ZM25.31 1.25C19.22 1.87 1.4 6.72 1.25 24.06C1.25 38.28 7.65 43.6 10.31 45.16C10.47 45 10.62 45 10.78 45C7.97 43.44 1.56 38.28 1.56 24.22C1.56 8.43 17.97 2.5 25.16 1.87L25.31 1.25ZM17.97 24.22C17.97 24.37 17.97 24.53 17.97 24.84C17.97 25.94 18.28 27.81 20 29.84C21.87 32.19 24.53 32.66 26.56 32.66C27.34 32.66 27.97 32.66 28.44 32.5C28.44 32.35 28.44 32.19 28.59 32.03C27.97 32.19 27.19 32.19 26.56 32.19C23.91 32.19 21.72 31.25 20.31 29.53C19.06 27.97 18.28 26.25 18.28 24.69L18.28 24.53C18.12 24.53 18.12 24.37 17.97 24.22ZM31.09 25C32.19 26.25 33.75 27.5 35.94 27.5C36.56 27.5 37.19 27.34 37.81 27.19C39.07 26.72 39.53 25.63 39.53 24.69C39.53 24.06 39.38 23.28 39.07 22.5L38.75 22.81C38.91 23.28 39.22 24.06 39.07 24.69C39.07 25.47 38.91 26.41 37.66 26.88C37.03 27.03 36.41 27.19 35.94 27.19C34.38 27.19 32.81 26.41 31.41 24.84L31.25 25C31.25 24.84 31.25 25 31.09 25ZM19.53 24.37C20.47 25.47 21.72 26.09 22.97 26.25C23.44 26.41 24.06 26.41 24.53 26.41C26.56 26.41 28.44 25.47 29.53 24.69L29.38 24.53L29.38 24.37C27.81 25.47 26.09 25.94 24.53 25.94C24.06 25.94 23.59 25.94 23.12 25.78C21.87 25.47 20.62 24.84 19.69 23.75C19.53 23.91 19.53 24.06 19.53 24.37ZM17.97 21.72C18.12 21.72 18.12 21.72 18.28 21.87L18.44 22.03C18.12 21.09 17.81 20.16 17.81 18.9C17.81 17.5 18.12 16.09 18.75 14.53L18.44 14.37C17.81 15.94 17.5 17.5 17.5 18.9C17.5 19.84 17.65 20.94 17.97 21.72ZM26.56 7.97L38.13 21.72L38.44 21.56L27.03 7.97C26.88 7.81 26.88 7.81 26.88 7.65L26.88 2.65C26.72 2.65 26.56 2.65 26.41 2.65L26.56 7.97Z" fill="url(#paint_linear_2201_579_0)" fill-opacity="1.000000" fill-rule="nonzero"/>
</svg>
