<svg width="98.000000" height="119.000000" viewBox="0 0 98 119" fill="none" xmlns="http://www.w3.org/2000/svg" xmlns:xlink="http://www.w3.org/1999/xlink">
	<desc>
			Created with Pixso.
	</desc>
	<defs>
		<linearGradient x1="16.447865" y1="72.129997" x2="76.424538" y2="44.322594" id="paint_linear_2201_572_0" gradientUnits="userSpaceOnUse">
			<stop stop-color="#F7941D"/>
			<stop offset="1.000000" stop-color="#27AAE1"/>
		</linearGradient>
	</defs>
	<path id="Vector" d="M38.49 109.94L90.1 86.01L92.15 90.43L40.54 114.36L38.49 109.94ZM39.43 101.6C38.67 99.97 38.47 98.93 40.57 97.96C53.58 91.93 66.6 85.89 79.62 79.85C81.71 78.88 82.38 79.71 83.13 81.33C83.89 82.96 83.74 83.87 81.88 84.74C75.38 87.75 68.87 90.77 62.36 93.79C55.85 96.81 49.34 99.83 42.83 102.84C41.2 103.6 40.29 103.46 39.43 101.6ZM47.24 42.9C48.86 42.15 49.65 42.63 50.3 44.02C54.18 52.39 58.29 60.65 64.28 67.48C66.83 70.53 69.73 73.14 72.51 76.09C72.96 76.45 73.51 77.04 74.07 77.63L42.69 92.18C42.6 91.37 42.61 90.8 42.63 90.23C42.67 81.17 40.74 72.75 37.43 64.39C35.83 60.33 34.12 56.04 32.29 52.09C31.64 50.69 31.89 50.01 33.29 49.37C35.85 48.18 38.17 47.1 40.73 45.92C42.82 44.95 44.91 43.98 47.24 42.9ZM20.02 48.17C19.38 46.78 18.5 45.49 20.82 44.41C31.05 39.67 41.28 34.93 51.51 30.19C53.37 29.32 53.92 29.91 54.68 31.54C55.33 32.94 56.1 33.99 53.77 35.07C48.55 37.21 43.31 39.92 38.2 42.29C33.08 44.66 28.2 46.92 23.09 49.3C23.09 49.3 23.09 49.3 22.85 49.4C21.46 50.05 20.78 49.8 20.02 48.17ZM11.51 41.39C9.46 36.97 7.65 32.45 5.37 28.14C4.4 26.04 5.56 25.51 6.96 24.86C8.35 24.21 9.62 23.91 10.25 25.87C10.66 27.38 11.65 28.9 12.3 30.29C12.95 31.68 13.97 32.06 15.36 31.41C18.15 30.12 20.94 28.83 23.73 27.53C25.12 26.89 25.5 25.86 24.85 24.47C24.1 22.84 23.34 21.22 22.59 19.59C22.05 18.43 22.3 17.75 23.46 17.21C25.55 16.24 27.41 15.37 29.51 14.4C30.67 13.87 31.12 14.22 31.65 15.38C32.41 17.01 33.16 18.64 33.92 20.27C34.56 21.66 35.59 22.04 36.98 21.39C39.77 20.1 42.56 18.8 45.35 17.51C46.74 16.86 47.12 15.84 46.47 14.45C45.72 12.82 45.07 11.42 44.32 9.8C43.22 8.04 44.62 7.4 45.78 6.86C46.01 6.75 46.01 6.75 46.24 6.64C47.41 6.1 48.34 5.67 49.2 7.53C51.35 12.18 53.51 16.83 55.66 21.48C56.31 22.88 56.06 23.56 54.67 24.2C47.93 27.33 41.42 30.35 34.67 33.47C32.81 34.34 30.96 35.2 29.1 36.06C24.45 38.22 19.8 40.37 14.91 42.63C14.91 42.63 14.91 42.63 14.68 42.74C13.06 43.5 12.27 43.01 11.51 41.39ZM38.73 8.71L41.32 14.29L36.67 16.45C35.7 14.36 34.83 12.5 33.97 10.64C33.11 8.78 32.09 8.4 30.23 9.27C26.28 11.1 22.33 12.93 18.61 14.66C16.75 15.52 16.37 16.54 17.24 18.4C18.1 20.26 19.07 22.35 19.93 24.21L15.28 26.37C14.31 24.27 13.45 22.41 12.48 20.32C11.72 18.69 10.6 18.09 8.74 18.95C7.34 19.6 5.71 20.35 4.32 21C3.39 21.43 2.69 21.75 1.76 22.18C-0.8 23.37 -0.94 24.28 0.14 26.61C3.05 32.88 6.07 39.39 8.98 45.67C10.16 48.23 10.61 48.58 13.17 47.4C14.33 46.86 15.01 47.11 15.66 48.5C16.31 49.9 17.06 51.52 17.71 52.92C18.57 54.78 19.82 55.05 21.45 54.29C23.31 53.43 25.17 52.57 27.03 51.7C29.29 56.59 31.57 60.9 33.5 65.65C36.69 73.77 38.62 82.2 38.14 90.9C37.96 92.96 37.46 94.32 35.5 94.95C33.3 95.68 33.03 96.94 34 99.03C34.65 100.42 35.29 101.82 35.83 102.98C36.48 104.38 36.57 105.18 34.83 105.7C33.1 106.23 32.83 107.48 33.59 109.11C34.77 111.66 35.85 113.99 37.04 116.54C37.9 118.4 38.92 118.78 40.78 117.92C44.96 115.98 49.15 114.04 53.57 111.99C67.51 105.52 81.23 99.16 95.18 92.7C97.73 91.51 97.98 90.83 96.8 88.27C95.72 85.95 94.75 83.85 93.67 81.53C92.81 79.67 91.81 78.72 89.82 79.93C88.66 80.47 87.98 80.22 87.44 79.05C86.69 77.43 86.04 76.03 85.29 74.4C84.53 72.78 83.17 72.28 81.88 73.16C79.31 74.92 77.62 73.72 75.72 72.06C74.38 70.99 72.93 69.68 71.82 68.5C65.13 62 60.55 53.96 56.44 45.69C55.47 43.6 54.39 41.28 53.31 38.95C55.41 37.98 57.27 37.12 59.36 36.15C60.99 35.4 61.59 34.27 60.73 32.41C60.08 31.01 59.44 29.62 58.79 28.22C58.14 26.83 58.28 25.92 59.79 25.5C61.52 24.98 62.02 23.62 61.27 21.99C58.14 15.25 54.91 8.28 51.78 1.53C51.03 -0.09 49.9 -0.7 48.15 0.39C45.59 1.58 43.27 2.66 40.71 3.84C40.71 3.84 40.71 3.84 40.48 3.95C38.13 5.6 37.98 7.09 38.73 8.71Z" fill="url(#paint_linear_2201_572_0)" fill-opacity="1.000000" fill-rule="nonzero"/>
</svg>
