<svg width="130.000000" height="130.000000" viewBox="0 0 130 130" fill="none" xmlns="http://www.w3.org/2000/svg" xmlns:xlink="http://www.w3.org/1999/xlink">
	<desc>
			Created with Pixso.
	</desc>
	<defs>
		<linearGradient x1="-0.202148" y1="64.431641" x2="129.946136" y2="64.431641" id="paint_linear_2201_3027_0" gradientUnits="userSpaceOnUse">
			<stop stop-color="#F7941D"/>
			<stop offset="1.000000" stop-color="#27AAE1"/>
		</linearGradient>
	</defs>
	<path id="Vector" d="M128.46 32.99C130.44 31.21 130.44 28.24 128.46 26.27L102.95 0.76C101.17 -1.02 98.01 -1.02 96.23 0.76L68.15 28.84C66.37 30.62 63.21 30.62 61.43 28.84L33.36 0.76C31.58 -1.02 28.41 -1.02 26.63 0.76L1.13 26.27C-0.65 28.05 -0.65 31.21 1.13 32.99L29.2 61.07C30.98 62.84 30.98 66.01 29.2 67.79L1.13 95.86C-0.65 97.64 -0.65 100.81 1.13 102.59L26.63 128.09C28.41 129.87 31.58 129.87 33.36 128.09L61.43 100.02C63.21 98.24 66.37 98.24 68.15 100.02L96.23 128.09C98.01 129.87 101.17 129.87 102.95 128.09L128.46 102.59C130.24 100.81 130.24 97.64 128.46 95.86L100.38 67.79C98.6 66.01 98.6 62.84 100.38 61.07L128.46 32.99ZM99.59 1.2Q100.57 1.2 101.54 2.18L127.04 27.68Q127.67 28.31 127.86 29.05Q127.94 29.37 127.94 29.7Q127.94 30.17 127.78 30.58Q127.58 31.09 127.12 31.5L127.08 31.54L98.97 59.65Q98.17 60.45 97.71 61.41Q97.05 62.76 97.05 64.43Q97.05 66.1 97.71 67.45Q98.17 68.41 98.97 69.2L127.04 97.28Q127.26 97.5 127.42 97.76Q127.79 98.38 127.79 99.23Q127.79 100.07 127.42 100.69Q127.26 100.95 127.04 101.17L101.54 126.68Q101.32 126.9 101.06 127.05Q100.44 127.43 99.59 127.43Q98.75 127.43 98.12 127.05Q97.86 126.9 97.64 126.68L69.57 98.6Q68.77 97.8 67.81 97.34Q66.46 96.68 64.79 96.68Q63.12 96.68 61.77 97.34Q60.81 97.8 60.02 98.6L31.94 126.68Q31.72 126.9 31.46 127.05Q30.84 127.43 29.99 127.43Q29.15 127.43 28.53 127.05Q28.27 126.9 28.05 126.68L2.54 101.17Q1.57 100.2 1.57 99.23Q1.57 98.25 2.54 97.28L30.62 69.2Q31.41 68.41 31.88 67.45Q32.54 66.1 32.54 64.43Q32.54 62.76 31.88 61.41Q31.41 60.45 30.62 59.65L2.54 31.58Q2.32 31.36 2.17 31.1Q1.79 30.47 1.79 29.63Q1.79 28.78 2.17 28.16Q2.32 27.9 2.54 27.68L28.05 2.18Q28.27 1.96 28.53 1.8Q29.15 1.43 29.99 1.43Q30.84 1.43 31.46 1.8Q31.72 1.96 31.94 2.18L60.02 30.25Q60.81 31.05 61.77 31.51Q63.12 32.17 64.79 32.17Q66.46 32.17 67.81 31.51Q68.77 31.05 69.57 30.25L97.64 2.18Q98.62 1.2 99.59 1.2Z" fill="url(#paint_linear_2201_3027_0)" fill-opacity="1.000000" fill-rule="evenodd"/>
</svg>
