<svg width="49.000000" height="36.000000" viewBox="0 0 49 36" fill="none" xmlns="http://www.w3.org/2000/svg" xmlns:xlink="http://www.w3.org/1999/xlink">
	<desc>
			Created with Pixso.
	</desc>
	<defs>
		<linearGradient x1="0.000000" y1="17.950012" x2="48.200001" y2="17.950012" id="paint_linear_2201_555_0" gradientUnits="userSpaceOnUse">
			<stop stop-color="#F7941D"/>
			<stop offset="1.000000" stop-color="#27AAE1"/>
		</linearGradient>
	</defs>
	<path id="Vector" d="M23.39 34.2C23.2 34.4 23.1 34.59 23.1 34.9C23.1 35.09 23.2 35.4 23.39 35.59C23.6 35.8 23.79 35.9 24.1 35.9C24.39 35.9 24.6 35.8 24.79 35.59C25 35.4 25.1 35.2 25.1 34.9C25.1 34.7 25 34.4 24.79 34.2C24.6 34 24.39 33.9 24.1 33.9C23.79 33.9 23.6 34 23.39 34.2ZM15.79 17.2L13.39 19.6L12.7 18.9C12.29 18.5 11.7 18.5 11.39 18.9C11 19.29 11 19.9 11.39 20.2L12.7 21.5C12.89 21.7 13.1 21.8 13.39 21.8C13.6 21.8 13.89 21.7 14.1 21.5L17.1 18.5C17.5 18.1 17.5 17.5 17.1 17.2C16.89 17 16.7 16.9 16.39 16.9C16.2 16.9 16 17 15.79 17.2ZM33.79 16.9L33.79 18.7C33.5 18.5 33 18.6 32.79 18.9C32.39 19.29 32.39 19.9 32.79 20.2L34.1 21.5C34.29 21.7 34.5 21.8 34.79 21.8C34.89 21.8 35 21.8 35.2 21.7C35.6 21.6 35.79 21.2 35.79 20.8L35.79 16.79C35.79 16.29 35.39 15.9 34.89 15.9C34.2 16 33.79 16.4 33.79 16.9ZM5.6 20.9C5.6 16.6 9.1 13.1 13.39 13.1C17.7 13.1 21.2 16.6 21.2 20.9C21.2 25.2 17.7 28.7 13.39 28.7C9.1 28.7 5.6 25.2 5.6 20.9ZM3.7 20.9C3.7 26.3 8.1 30.6 13.39 30.6C18.79 30.6 23.1 26.2 23.1 20.9C23.1 15.6 18.7 11.2 13.39 11.2C8.1 11.2 3.7 15.6 3.7 20.9ZM26.89 20.9C26.89 16.6 30.39 13.1 34.7 13.1C39 13.1 42.5 16.6 42.5 20.9C42.5 25.2 39 28.7 34.7 28.7C30.39 28.7 26.89 25.2 26.89 20.9ZM25 20.9C25 26.3 29.39 30.6 34.7 30.6C40.1 30.6 44.39 26.2 44.39 20.9C44.39 15.6 40 11.2 34.7 11.2C29.39 11.2 25 15.6 25 20.9ZM32 0C31.5 0 31.1 0.4 31.1 0.9C31.1 1.4 31.5 1.8 32 1.8L33.79 1.8L33.79 5.9L14.39 5.9L14.39 3.59L16.2 3.59C16.7 3.59 17.1 3.2 17.1 2.7C17.1 2.2 16.7 1.8 16.2 1.8L10.7 1.8C10.2 1.8 9.79 2.2 9.79 2.7C9.79 3.2 10.2 3.59 10.7 3.59L12.5 3.59L12.5 5.9L2.79 5.9C1.2 5.9 0 7.2 0 8.7L0 32.8C0 34.4 1.29 35.59 2.79 35.59L19.79 35.59C20.29 35.59 20.7 35.2 20.7 34.7C20.7 34.2 20.29 33.8 19.79 33.8L2.79 33.8C2.29 33.8 1.89 33.4 1.89 32.9L1.89 8.8C1.89 8.3 2.29 7.9 2.79 7.9L45.39 7.9C45.89 7.9 46.29 8.3 46.29 8.8L46.29 32.9C46.29 33.4 45.89 33.8 45.39 33.8L28.39 33.8C27.89 33.8 27.5 34.2 27.5 34.7C27.5 35.2 27.89 35.59 28.39 35.59L45.39 35.59C47 35.59 48.2 34.3 48.2 32.8L48.2 8.7C48.2 7.1 46.89 5.9 45.39 5.9L35.7 5.9L35.7 1.8L37.5 1.8C38 1.8 38.39 1.4 38.39 0.9C38.39 0.4 38 0 37.5 0L32 0Z" fill="url(#paint_linear_2201_555_0)" fill-opacity="1.000000" fill-rule="nonzero"/>
</svg>
