<svg width="40.000000" height="40.000000" viewBox="0 0 40 40" fill="none" xmlns="http://www.w3.org/2000/svg" xmlns:xlink="http://www.w3.org/1999/xlink">
	<desc>
			Created with Pixso.
	</desc>
	<defs>
		<linearGradient x1="0.000000" y1="19.807770" x2="39.941410" y2="19.807770" id="paint_linear_2201_553_0" gradientUnits="userSpaceOnUse">
			<stop stop-color="#F7941D"/>
			<stop offset="1.000000" stop-color="#27AAE1"/>
		</linearGradient>
	</defs>
	<path id="Vector" d="M4.64 36.3C5.04 35.8 5.54 35.4 6.24 35.3L10.14 34.59C10.84 34.5 11.54 34.59 12.04 35C12.54 35.4 12.94 35.9 13.04 36.59L4.24 38.2C4.14 37.5 4.24 36.9 4.64 36.3ZM5.44 26.8L7.84 26.4L8.04 26.4L9.84 33.2L6.24 33.8L5.44 26.8ZM9.44 26.1L9.64 26.1C9.64 26.2 9.54 26.2 9.54 26.3L9.54 26.4L9.44 26.1ZM10.94 26.9C11.24 26.3 11.74 25.9 12.34 25.6C12.94 25.4 13.64 25.4 14.24 25.7L17.84 27.3C18.44 27.6 18.94 28.1 19.14 28.7C19.34 29.3 19.34 29.9 19.14 30.6L10.94 26.9ZM2.44 24.7L10.04 23.4L10.24 24.5L2.64 25.8L2.44 24.7ZM4.64 22.2C4.64 22.1 4.64 22.1 4.54 22C4.54 21.9 4.44 21.9 4.44 21.8L2.14 19.4L5.34 18.79L8.44 18.2L7.14 21.3C7.14 21.4 7.14 21.4 7.04 21.5C7.04 21.6 7.04 21.6 7.04 21.7L7.14 22.3L4.74 22.7L4.64 22.2ZM16.64 25.1L14.94 24.4L18.34 18.2L20.64 19.29L18.24 25.9L16.64 25.1ZM3.84 16.9C4.14 16.6 4.44 16.4 4.84 16.4C5.24 16.29 5.64 16.4 5.94 16.5C6.24 16.6 6.54 16.9 6.74 17.2L3.34 17.79C3.44 17.4 3.64 17.1 3.84 16.9ZM21.84 18.2L16.54 15.8L17.04 14.8L24.04 18L23.54 19L21.84 18.2ZM20.04 14.5L20.64 13.2C20.64 13.1 20.74 13 20.74 12.9C20.74 12.8 20.74 12.7 20.74 12.6C20.64 12.4 20.64 12.2 20.64 11.9C20.64 11.7 20.74 11.5 20.84 11.2C20.84 11.1 20.94 11.1 20.94 11C20.94 10.9 21.04 10.9 21.04 10.8C21.14 10.8 21.14 10.7 21.24 10.6C21.34 10.5 21.34 10.5 21.34 10.4C21.74 10.1 22.24 9.9 22.74 9.9C23.24 9.9 23.64 10.1 24.04 10.5C24.24 10.8 24.44 11.1 24.44 11.5C24.54 11.8 24.44 12.2 24.34 12.5C24.24 12.7 24.14 12.9 23.94 13C23.74 13.2 23.64 13.3 23.34 13.4C23.24 13.4 23.14 13.5 23.14 13.6C23.04 13.7 23.04 13.7 23.04 13.8L22.44 15.1L20.04 14.5ZM22.84 8.79C22.74 8.79 22.64 8.79 22.54 8.79L23.84 6.9L29.94 6.79C30.44 6.79 30.94 7 31.24 7.29C31.54 7.59 31.84 8.09 31.84 8.59C31.84 9.09 31.64 9.59 31.34 9.9C31.04 10.2 30.54 10.5 30.04 10.5L27.54 10.5C27.24 10.5 26.84 10.6 26.54 10.7C26.24 10.8 25.94 10.9 25.74 11.1C25.64 10.8 25.44 10.5 25.34 10.2C25.14 9.9 24.94 9.7 24.64 9.4L25.24 8.09L23.94 7.5L23.34 8.79C23.04 8.79 22.94 8.79 22.84 8.79ZM22.04 0.2C21.54 0.2 20.94 0.29 20.54 0.59C20.04 0.9 19.64 1.2 19.34 1.7L15.94 6.79C15.44 7.59 15.24 8.5 15.44 9.29C15.64 10.1 16.04 10.9 16.84 11.4L16.94 11.5L17.04 11.6C17.34 11.8 17.74 11.9 18.14 12C18.44 12.1 18.84 12.1 19.14 12C19.14 12.1 19.14 12.3 19.14 12.4C19.14 12.6 19.14 12.7 19.24 12.9L18.74 14L17.04 13.2C16.84 13.1 16.64 13.1 16.44 13.2C16.24 13.3 16.14 13.4 16.04 13.6L14.94 16C14.84 16.2 14.84 16.4 14.94 16.6C15.04 16.79 15.14 16.9 15.34 17L17.04 17.7L13.54 24.1C13.24 24.1 12.94 24.1 12.64 24.1C12.34 24.1 12.04 24.2 11.74 24.3L11.44 22.4C11.44 22.2 11.34 22 11.14 21.9C10.94 21.8 10.84 21.7 10.64 21.8C10.04 21.9 9.34 22 8.74 22.1L8.64 21.8L10.44 17.7C10.54 17.5 10.54 17.29 10.44 17.1C10.34 16.9 10.24 16.79 10.04 16.7C9.94 16.7 9.94 16.7 9.84 16.6C9.74 16.6 9.74 16.6 9.64 16.6L8.34 16.79C8.04 16.2 7.64 15.7 7.14 15.4C6.64 15 6.04 14.8 5.34 14.8L5.14 13.4L3.74 13.7L3.94 15.1C3.34 15.4 2.84 15.8 2.54 16.29C2.14 16.79 1.94 17.4 1.94 18.1L0.64 18.29C0.44 18.29 0.24 18.4 0.14 18.6C0.04 18.79 -0.06 18.9 0.04 19.1C0.04 19.2 0.04 19.2 0.14 19.29C0.14 19.4 0.24 19.4 0.24 19.5L3.34 22.7L3.44 23L1.64 23.3C1.44 23.3 1.24 23.4 1.14 23.6C1.04 23.8 0.94 23.9 1.04 24.1L1.54 26.7C1.54 26.9 1.64 27 1.84 27.1C1.94 27.2 2.14 27.3 2.34 27.3L2.44 27.3L2.54 27.3L4.34 27L5.04 34.2C4.34 34.59 3.74 35.2 3.44 35.9C3.04 36.59 2.94 37.4 3.04 38.3C3.14 38.7 3.14 39 3.34 39.2C3.44 39.4 3.64 39.5 3.84 39.59C4.24 39.7 6.24 39.3 8.44 38.9C9.64 38.7 10.94 38.4 11.94 38.3L14.34 37.9C14.54 37.9 14.74 37.8 14.84 37.59C14.94 37.4 15.04 37.3 14.94 37.09L14.84 36.5C14.74 35.7 14.24 34.9 13.74 34.3C13.14 33.7 12.44 33.4 11.64 33.2L10.34 28L19.64 32.2C19.84 32.3 20.04 32.3 20.24 32.2C20.44 32.09 20.54 32 20.64 31.8L20.94 31.2C21.34 30.4 21.34 29.6 21.24 28.8C21.04 28 20.74 27.3 20.04 26.7L22.54 19.79L24.24 20.5C24.24 20.5 24.34 20.5 24.44 20.5C24.54 20.5 24.54 20.5 24.64 20.5L24.74 20.5L24.84 20.5C24.94 20.5 25.04 20.4 25.04 20.29C25.14 20.2 25.14 20.2 25.24 20.1L26.34 17.7C26.44 17.5 26.44 17.29 26.34 17.1C26.24 16.9 26.14 16.79 25.94 16.7L24.24 15.9L24.74 14.8L24.84 14.7C25.04 15.4 25.44 16 26.04 16.4C26.64 16.79 27.34 17.1 28.04 17.1L39.84 16.9L39.84 15.4L28.04 15.6C27.74 15.6 27.54 15.6 27.24 15.4C27.04 15.3 26.74 15.1 26.64 15C26.44 14.8 26.34 14.6 26.24 14.3C26.14 14.1 26.14 13.8 26.14 13.5C26.24 13 26.44 12.6 26.84 12.3C27.14 12 27.64 11.8 28.14 11.8L30.64 11.8C31.54 11.8 32.44 11.4 33.04 10.8C33.64 10.2 34.04 9.29 33.94 8.4C33.94 7.5 33.54 6.59 32.94 6C32.34 5.4 31.44 5 30.54 5.09L24.04 5.2C23.94 5.2 23.84 5.2 23.74 5.29C23.64 5.39 23.54 5.4 23.44 5.5L20.94 9.4L20.94 9.5C20.84 9.5 20.84 9.6 20.74 9.7C20.74 9.79 20.64 9.79 20.64 9.9C20.34 10.2 19.94 10.3 19.64 10.4C19.24 10.4 18.84 10.4 18.54 10.2C18.04 9.9 17.74 9.5 17.64 9.09C17.54 8.59 17.54 8.1 17.84 7.7L17.94 7.59L21.34 2.5C21.54 2.2 21.74 2 22.04 1.9C22.34 1.79 22.64 1.7 22.94 1.7L39.94 1.5L39.94 0L22.04 0.2Z" fill="url(#paint_linear_2201_553_0)" fill-opacity="1.000000" fill-rule="nonzero"/>
</svg>
