<svg width="43.000000" height="37.000000" viewBox="0 0 43 37" fill="none" xmlns="http://www.w3.org/2000/svg" xmlns:xlink="http://www.w3.org/1999/xlink">
	<desc>
			Created with Pixso.
	</desc>
	<defs>
		<linearGradient x1="0.000000" y1="18.299995" x2="42.651970" y2="18.299995" id="paint_linear_2201_547_0" gradientUnits="userSpaceOnUse">
			<stop stop-color="#F7941D"/>
			<stop offset="1.000000" stop-color="#27AAE1"/>
		</linearGradient>
	</defs>
	<path id="Vector" d="M20.15 14C21.25 14 21.25 12.3 20.15 12.3C19.05 12.3 19.05 14 20.15 14ZM29.75 21.9C29.95 21.8 30.15 21.6 30.25 21.4L30.85 19.9C30.95 19.7 31.25 19.6 31.45 19.6L36.95 19.6C37.15 19.6 37.45 19.7 37.55 19.9L41.15 25.7C41.25 25.8 41.25 26 41.25 26C41.25 26.2 41.15 26.4 40.95 26.5C40.85 26.6 40.65 26.6 40.45 26.6C40.35 26.6 40.15 26.5 40.05 26.4L38.35 23.4C38.15 23.1 37.75 22.9 37.45 23C37.05 23.1 36.85 23.4 36.85 23.8L36.85 29.1L36.85 34.8L34.95 34.8L34.95 29.1C34.95 28.6 34.55 28.3 34.15 28.3C33.65 28.3 33.35 28.7 33.35 29.1L33.35 34.8L31.45 34.8L31.45 29.1L31.45 23.8C31.45 23.3 31.05 23 30.65 23C30.15 23 29.85 23.4 29.85 23.8L29.85 23.9L24.75 21.2L24.65 21.2C24.45 21.1 24.25 20.9 24.25 20.6C24.25 20.5 24.25 20.5 24.25 20.4C24.35 20.2 24.45 20.1 24.55 20.1C24.65 20 24.85 20 24.95 20.1L29.15 21.9C29.25 21.9 29.35 22 29.45 22C29.55 22 29.65 22 29.75 21.9ZM32.05 15.9C32.05 14.7 32.95 13.8 34.15 13.8C35.35 13.8 36.25 14.7 36.25 15.9C36.25 17.1 35.35 18 34.15 18C32.95 18 32.05 17.1 32.05 15.9ZM9.55 4.4C9.55 2.9 10.85 1.59 12.35 1.59C13.85 1.59 15.15 2.9 15.15 4.4C15.15 5.9 13.85 7.2 12.35 7.2C10.75 7.09 9.55 5.9 9.55 4.4ZM7.85 4.4C7.85 5.5 8.25 6.4 8.85 7.2C7.95 7.2 7.15 7.7 6.65 8.4L0.45 17.2C-0.35 18.4 -0.05 20 1.05 20.8C1.45 21.1 2.05 21.3 2.55 21.3C3.45 21.3 4.25 20.9 4.65 20.2L6.95 16.9L6.95 24.1L6.95 35.8C6.95 36.3 7.35 36.59 7.75 36.59L12.15 36.59L16.55 36.59C17.05 36.59 17.35 36.2 17.35 35.8L17.35 24.1L17.35 16.9L19.65 20.2C20.25 21.1 21.35 21.5 22.25 21.3C22.45 22 22.95 22.6 23.65 22.9L29.45 26L29.45 29.3L29.45 35.8C29.45 36.3 29.85 36.59 30.25 36.59L33.85 36.59L37.45 36.59C37.95 36.59 38.25 36.2 38.25 35.8L38.25 29.3L38.25 27.2L38.45 27.5C38.45 27.5 38.45 27.5 38.45 27.6C38.85 28.1 39.35 28.4 39.95 28.5C40.55 28.6 41.15 28.5 41.65 28.1C42.25 27.7 42.65 27 42.65 26.2C42.65 25.7 42.55 25.3 42.25 24.9L38.65 19.1C38.25 18.5 37.65 18.2 37.05 18.1C37.45 17.5 37.75 16.79 37.75 16C37.75 13.9 36.05 12.2 33.95 12.2C31.85 12.2 30.15 13.9 30.15 16C30.15 16.79 30.35 17.5 30.85 18.1C30.15 18.2 29.55 18.6 29.25 19.1C29.25 19.2 29.15 19.2 29.15 19.29L28.85 20.1L25.45 18.6C25.45 18.6 25.45 18.6 25.35 18.6C25.05 18.5 24.75 18.4 24.45 18.5C24.45 18.1 24.25 17.6 23.95 17.29L22.15 14.7C21.85 14.3 21.35 14.2 20.95 14.5C20.55 14.8 20.45 15.3 20.75 15.7L22.55 18.29C22.65 18.5 22.75 18.6 22.75 18.79C22.75 19.1 22.65 19.4 22.35 19.6C21.95 19.9 21.35 19.79 21.05 19.4L17.15 13.9C16.95 13.6 16.55 13.5 16.25 13.6C15.85 13.7 15.65 14 15.65 14.4L15.65 24.3L15.65 35.09L12.95 35.09L12.95 24.3C12.95 23.8 12.55 23.5 12.15 23.5C11.65 23.5 11.35 23.9 11.35 24.3L11.35 35.09L8.65 35.09L8.65 24.3L8.65 14.4C8.65 14 8.45 13.7 8.05 13.6C7.65 13.5 7.35 13.6 7.15 13.9L3.25 19.4C3.05 19.6 2.75 19.79 2.45 19.79C2.25 19.79 2.05 19.7 1.95 19.6C1.55 19.29 1.45 18.7 1.75 18.29L7.95 9.5C8.15 9.2 8.55 9 8.85 9L15.55 9C15.95 9 16.25 9.2 16.45 9.5L18.15 11.9C18.45 12.3 18.95 12.4 19.35 12.1C19.75 11.8 19.85 11.3 19.55 10.9L17.85 8.5C17.35 7.79 16.55 7.29 15.65 7.29C16.25 6.5 16.65 5.6 16.65 4.5C16.65 2 14.65 0 12.15 0C9.65 0 7.85 1.9 7.85 4.4Z" fill="url(#paint_linear_2201_547_0)" fill-opacity="1.000000" fill-rule="nonzero"/>
</svg>
