<svg width="38.000000" height="40.000000" viewBox="0 0 38 40" fill="none" xmlns="http://www.w3.org/2000/svg" xmlns:xlink="http://www.w3.org/1999/xlink">
	<desc>
			Created with Pixso.
	</desc>
	<defs>
		<linearGradient x1="0.000000" y1="19.749996" x2="37.699997" y2="19.749996" id="paint_linear_2201_551_0" gradientUnits="userSpaceOnUse">
			<stop stop-color="#F7941D"/>
			<stop offset="1.000000" stop-color="#27AAE1"/>
		</linearGradient>
	</defs>
	<path id="Vector" d="M9.7 34C9.7 33.4 9.89 32.9 10.1 32.5C10.39 31.9 10.89 31.3 11.39 30.9C11.5 30.8 11.6 30.8 11.7 30.7C12.2 30.4 13 30.2 13.6 30.2L24 30.2C24.6 30.2 25.2 30.4 25.6 30.6L26.1 30.9C26.6 31.3 26.89 31.5 27.29 32.09C27.7 32.7 27.89 33.5 27.89 34.2L27.89 37.9L24.89 37.9L24.89 35.5C24.89 35 24.1 34.5 23.5 35C23.39 35.09 23.29 35.4 23.29 35.5L23.29 37.8L14.29 37.8L14.29 35.59C14.29 35.2 14.1 34.9 13.79 34.8C13.6 34.7 13.39 34.7 13.1 34.8C13 34.9 12.89 34.9 12.79 35C12.7 35.09 12.6 35.3 12.6 35.59L12.6 37.8L9.6 37.8L9.6 34L9.7 34ZM13.89 28.5C13.5 28.5 13 28.5 12.6 28.6C12.5 28.6 12.39 28.6 12.29 28.7L11.5 29C11.1 29.2 11 29.3 10.6 29.5L10.2 29.8C9.79 30.2 9.2 30.8 8.89 31.3C8.5 32.09 8.1 33 8.1 34.09L8.1 38.7C8.1 39.09 8.5 39.5 8.89 39.5L28.7 39.5C29.2 39.5 29.6 39.09 29.6 38.59L29.6 34.4C29.6 32.4 28.79 30.7 27.2 29.6C27.2 29.6 27.1 29.6 27.1 29.5L26.79 29.3C26.2 29 25.89 28.9 25.2 28.7C24.89 28.6 24.29 28.6 23.89 28.6L13.89 28.6L13.89 28.5ZM16.1 24.6L15.79 24.4C15.6 24.2 15.29 23.8 15.1 23.5L14.7 22.6C14.6 22.2 14.5 21.7 14.5 21.2C14.5 20.9 14.6 20.5 14.6 20.2C14.7 19.9 14.79 19.6 14.89 19.4C15.1 18.9 15.2 18.79 15.5 18.4C15.6 18.29 15.7 18.2 15.79 18.1C17.2 16.7 19.5 16.4 21.2 17.6C21.29 17.6 21.29 17.7 21.29 17.7C22.29 18.4 23 19.79 23 21C23 21.5 23 21.7 22.89 22.2C22.79 22.6 22.79 22.6 22.6 23L22.29 23.5C22.29 23.5 22.29 23.5 22.29 23.6C22.29 23.6 22.29 23.7 22.2 23.7C21.7 24.4 21 24.9 20.2 25.2C19.7 25.4 19.29 25.5 18.79 25.5C17.89 25.5 16.89 25.2 16.1 24.6ZM17.29 15.5L16.79 15.7C16.6 15.8 16.5 15.8 16.29 15.9L16.1 16C16 16 16 16 16 16.1L15.39 16.4C14.7 16.9 14.2 17.5 13.7 18.2C13.7 18.29 13.6 18.29 13.6 18.4C13.2 19 12.89 20.2 12.89 20.9C12.89 21.6 12.89 22.3 13.2 23C13.29 23.1 13.29 23.3 13.39 23.5C13.79 24.4 14.1 24.7 14.79 25.4C15.1 25.7 15.5 25.9 15.79 26.2C15.89 26.2 15.89 26.3 16 26.3C16.5 26.6 16.7 26.7 17.29 26.8C17.7 26.9 18.6 27 18.89 27C19.29 26.9 19.5 27 20.2 26.8C20.6 26.7 21.2 26.5 21.5 26.3L21.7 26.2C22.2 25.9 22.2 25.9 22.6 25.6C22.7 25.5 22.7 25.5 22.79 25.4C22.89 25.3 22.89 25.3 23 25.2L23.29 24.8C24.5 23.3 25 21.5 24.5 19.6C24.2 18.6 23.7 17.6 23 16.79L22.89 16.7C22.89 16.7 22.89 16.7 22.79 16.7C22.39 16.4 22.5 16.4 22 16.1L21.29 15.7C20.7 15.4 19.7 15.1 19 15.1C18.89 15.1 18.89 15.1 18.79 15.1C18.29 15.3 18 15.3 17.29 15.5ZM29.6 15.6C29.6 15.4 29.7 15.2 29.7 15.1C29.79 14.4 29.89 14.3 29.29 13.8L28.2 12.7C28.1 12.6 28.1 12.6 28.2 12.6C28.29 12.5 29.89 12.4 30.2 12.3C30.29 12.3 30.5 12.2 30.6 12.1C30.6 12.1 30.7 12 30.7 11.9L31.6 10.1C31.6 10.2 32 10.9 32.1 11.1C32.7 12.3 32.5 12.2 33.79 12.4C34 12.4 34.2 12.5 34.39 12.5C34.5 12.5 35 12.6 35 12.6C35 12.6 35 12.6 35 12.7C34.89 12.8 34.89 12.8 34.89 12.8L34.2 13.5C34.1 13.6 34.1 13.6 34 13.7C33.79 13.9 33.7 14 33.6 14.2C33.39 14.5 33.6 15.2 33.7 15.6L33.89 16.7L32.89 16.2C32.7 16.1 32 15.7 31.89 15.7C31.39 15.7 31.39 15.8 30.89 16L30.39 16.1L29.89 16.4C29.89 16.4 29.79 16.4 29.79 16.5L29.39 16.7L29.6 15.6ZM31 7.7C30.79 7.9 30.39 8.7 30.29 9C30.29 9.09 30.29 9.1 30.2 9.2C30.1 9.4 29.6 10.4 29.39 10.7C29.39 10.8 29.39 10.8 29.2 10.8L28.29 10.9C28.1 10.9 27.89 11 27.7 11C27.29 11.1 26.29 11.2 26 11.3C25.7 11.4 25.5 11.7 25.5 12.1C25.5 12.3 25.6 12.5 25.7 12.6L26.7 13.6C27 13.9 27.29 14.2 27.6 14.4L27.7 14.4C27.89 14.5 28 14.7 28.1 14.8C28 15.1 27.89 16.1 27.79 16.4L27.6 17.6C27.6 17.9 27.39 18.2 27.7 18.6C27.89 18.79 28.1 18.9 28.39 18.9C28.6 18.9 29.1 18.6 29.39 18.5L29.7 18.29C29.79 18.2 29.89 18.2 30 18.1L31.5 17.29C31.6 17.29 31.6 17.29 31.79 17.4L34 18.5C34.2 18.6 34.39 18.79 34.7 18.79C35 18.79 35.2 18.79 35.39 18.6C35.79 18.2 35.6 17.7 35.5 17.1C35.5 17 35.5 16.79 35.39 16.7L35.1 14.7C35.2 14.7 35.2 14.6 35.29 14.6C35.6 14.4 36.5 13.4 37 12.9C37.29 12.6 37.6 12.4 37.7 12L37.7 11.8C37.7 11.7 37.7 11.7 37.6 11.6C37.39 11.1 37 11.1 36.6 11C36.39 11 36.2 10.9 36 10.9C35.79 10.9 35.6 10.8 35.39 10.8L34.29 10.6C33.7 10.5 33.89 10.7 33.6 10L32.7 8.3C32.7 8.2 32.7 8.2 32.6 8.09C32.39 7.79 32.5 7.7 32.2 7.5C32.1 7.4 31.89 7.3 31.6 7.3C31.39 7.4 31.2 7.5 31 7.7ZM4.1 15.1C4.2 14.8 4.2 14.5 4.1 14.2C4 14.1 4 14.1 3.89 14C3.7 13.8 3.6 13.7 3.5 13.6L2.6 12.7C2.89 12.6 4.1 12.5 4.5 12.4C4.7 12.4 4.89 12.3 5 12.2C5.1 12.1 5.2 11.9 5.29 11.7L5.79 10.7C5.89 10.6 6 10.3 6 10.2C6 10.3 6.39 11 6.5 11.2C6.6 11.4 6.89 12 7 12.2C7.29 12.5 7.7 12.5 8.1 12.5C8.29 12.5 9.29 12.7 9.39 12.7C9.29 12.8 8.29 13.8 8.1 14C8 14.1 7.89 14.1 7.89 14.2C7.7 14.5 7.79 14.8 7.89 15.2L8.2 16.79C7.89 16.6 7.5 16.5 7.2 16.29C7 16.2 6.39 15.8 6.2 15.8C5.7 15.8 5.7 15.9 5.2 16.1L3.89 16.79L4.1 15.1ZM5.5 7.7C5.29 7.9 4.89 8.7 4.79 9C4.79 9 4.79 9.09 4.7 9.09L3.89 10.8C3.79 10.9 3.7 10.9 3.39 10.9L1.7 11.1C1.39 11.1 0.79 11.2 0.6 11.3C0.29 11.4 0 11.7 0 12C0 12.5 0.2 12.6 0.5 12.9L1.5 13.9C1.7 14.1 2.5 14.8 2.5 14.9L2.1 17.4C2.1 17.7 2 17.9 2 18.29C2 18.79 2.6 19.29 3.29 18.9L5.79 17.6C5.89 17.6 5.89 17.5 6 17.5C6.1 17.6 6.2 17.6 6.29 17.7C6.39 17.7 6.39 17.7 6.5 17.79C6.7 17.9 7.39 18.2 7.6 18.4L8.7 19C8.79 19.1 8.79 19 8.79 19.2C9.2 19.2 9.5 19.2 9.7 19C10.1 18.7 9.89 18.2 9.79 17.7C9.7 17.4 9.7 17.2 9.7 16.9L9.5 15.8C9.5 15.7 9.39 15.5 9.39 15.4C9.39 15.1 9.29 15.2 9.7 14.9L10.7 13.9L11.1 13.5C11.6 13 12.29 12.5 11.79 11.9C11.7 11.7 11.5 11.6 11.2 11.6C10.5 11.5 9.6 11.4 8.79 11.3L8 11.2L7.6 10.3C7.5 10.2 6.6 8.29 6.5 8.2C6.29 8 6.1 7.9 5.89 7.9C5.79 7.4 5.6 7.5 5.5 7.7ZM17 7.3C17 7 17 6.79 16.89 6.7C16.79 6.6 16.5 6.29 16.39 6.2C16.2 6 15.5 5.4 15.39 5.3C15.5 5.3 15.89 5.2 16 5.2C16.29 5.2 17.39 5 17.6 4.9C17.79 4.79 17.89 4.7 18 4.5L18.6 3.3C18.6 3.3 18.6 3.2 18.7 3.2L18.89 2.8C19 2.9 19.6 4.1 19.7 4.3C19.89 4.6 20 5 20.39 5L21.7 5.2C21.79 5.2 21.89 5.2 22 5.2C22.1 5.2 22.2 5.2 22.29 5.2C22.29 5.29 22 5.5 21.89 5.59L20.79 6.7C20.6 7.1 20.7 7.5 20.79 7.9C20.79 8.09 20.89 8.29 20.89 8.5C20.89 8.59 20.89 8.7 20.89 8.8C20.89 8.9 21 9 21 9.09C20.89 9.09 20 8.59 19.7 8.4L19.1 8.09C18.89 8 18.6 8.1 18.29 8.3L17 9C16.89 9 16.79 9.09 16.7 9.09L17 7.3ZM18.29 0.2C18.1 0.4 17.79 1.09 17.6 1.5L16.7 3.2C16.6 3.4 16.7 3.29 16.29 3.4C16.1 3.4 15.89 3.5 15.7 3.5C15.2 3.59 13.7 3.8 13.39 3.8C13.1 3.9 12.79 4.2 12.79 4.5C12.79 5 13 5.09 13.29 5.4L13.79 5.9C13.89 6 13.89 6 14 6.09C14.2 6.29 14.39 6.5 14.7 6.8L15 7.09C15.1 7.2 15.2 7.4 15.29 7.4C15.29 7.59 15.2 8 15.2 8.2L14.89 9.8C14.79 10.2 14.6 10.9 15 11.2C15.29 11.5 15.7 11.5 16.1 11.3C16.2 11.2 16.39 11.2 16.5 11.1C16.89 10.8 17.89 10.4 18.39 10.1C18.5 10.1 18.79 9.9 18.79 9.9L21.1 11.1C21.39 11.3 22 11.7 22.5 11.2C22.89 10.8 22.7 10.3 22.6 9.7C22.5 9.4 22.5 9.1 22.39 8.7C22.29 8.4 22.29 8 22.2 7.7C22.1 7.2 22.1 7.4 22.5 7C22.6 6.9 22.7 6.79 22.79 6.7L24.29 5.3C24.6 5 24.7 4.9 24.7 4.5C24.7 4.09 24.39 3.9 24.2 3.8C24 3.8 21.79 3.4 21.5 3.4L20.89 3.3L19.6 0.59C19.39 0.2 19.2 0 18.7 0C18.6 0.09 18.39 0.1 18.29 0.2Z" fill="url(#paint_linear_2201_551_0)" fill-opacity="1.000000" fill-rule="nonzero"/>
</svg>
