<svg width="40.000000" height="32.000000" viewBox="0 0 40 32" fill="none" xmlns="http://www.w3.org/2000/svg" xmlns:xlink="http://www.w3.org/1999/xlink">
	<desc>
			Created with Pixso.
	</desc>
	<defs>
		<linearGradient x1="0.000000" y1="15.699997" x2="39.099998" y2="15.699997" id="paint_linear_2201_549_0" gradientUnits="userSpaceOnUse">
			<stop stop-color="#F7941D"/>
			<stop offset="1.000000" stop-color="#27AAE1"/>
		</linearGradient>
	</defs>
	<path id="Vector" d="M18.2 28.2C18.2 27.3 18.89 26.6 19.79 26.6C20.7 26.6 21.39 27.3 21.39 28.2C21.39 29.1 20.7 29.8 19.79 29.8C19 29.8 18.2 29.1 18.2 28.2ZM16.7 27.4L0.79 27.4C0.39 27.4 0 27.8 0 28.2C0 28.6 0.39 29 0.79 29L16.7 29C17.1 30.4 18.29 31.4 19.79 31.4C21.29 31.4 22.5 30.4 22.89 29L38.29 29C38.7 29 39.1 28.6 39.1 28.2C39.1 27.8 38.7 27.4 38.29 27.4L22.89 27.4C22.5 26 21.29 25 19.79 25C18.29 25 17.1 26 16.7 27.4ZM16.6 7.59L22 11.4L16.6 15.2L16.6 7.59ZM15.39 5.29C15.1 5.39 15 5.7 15 6L15 16.79C15 17.1 15.2 17.4 15.39 17.5C15.79 17.7 16.1 17.5 16.2 17.4L23.79 12C24 11.8 24.1 11.6 24.1 11.3C24.1 11 24 10.8 23.79 10.6L16.2 5.2C16.1 5.1 15.89 5.09 15.7 5.09C15.7 5.29 15.5 5.29 15.39 5.29ZM1.7 20.9L1.7 2.09C1.7 1.9 1.89 1.7 2.1 1.7L37.1 1.7C37.29 1.7 37.5 1.9 37.5 2.09L37.5 20.9C37.5 21.1 37.29 21.3 37.1 21.3L2.1 21.3C1.89 21.2 1.7 21.1 1.7 20.9ZM2.1 0C1 0 0.1 0.9 0.1 2L0.1 20.8C0.1 21.9 1 22.8 2.1 22.8L37.1 22.8C38.2 22.8 39.1 21.9 39.1 20.8L39.1 2C39.1 0.9 38.2 0 37.1 0L2.1 0Z" fill="url(#paint_linear_2201_549_0)" fill-opacity="1.000000" fill-rule="nonzero"/>
</svg>
