<svg width="138.000000" height="115.000000" viewBox="0 0 138 115" fill="none" xmlns="http://www.w3.org/2000/svg" xmlns:xlink="http://www.w3.org/1999/xlink">
	<desc>
			Created with Pixso.
	</desc>
	<defs>
		<linearGradient x1="0.000000" y1="57.500000" x2="137.999969" y2="57.500000" id="paint_linear_2201_386_0" gradientUnits="userSpaceOnUse">
			<stop stop-color="#F7941D"/>
			<stop offset="1.000000" stop-color="#27AAE1"/>
		</linearGradient>
	</defs>
	<path id="Vector" d="M65.38 2.03L0.68 108.11C-1.13 111.19 0.86 115 4.29 115L133.7 115C137.13 115 139.12 111.01 137.31 108.11L72.61 2.03C70.8 -0.68 67.01 -0.68 65.38 2.03ZM2.39 109.13Q1.95 109.9 1.98 110.64Q2 111.22 2.29 111.78Q2.61 112.4 3.12 112.7Q3.62 113 4.29 113L133.7 113Q134.29 113 134.74 112.75Q135.33 112.44 135.69 111.72Q136.06 111.01 136.01 110.32Q135.97 109.73 135.62 109.16L70.92 3.11Q70.47 2.44 69.85 2.18Q69.43 2 68.93 2Q68.38 2 67.95 2.22Q67.44 2.48 67.1 3.06L2.39 109.13Z" fill="url(#paint_linear_2201_386_0)" fill-opacity="1.000000" fill-rule="evenodd"/>
</svg>
