<svg width="180.000000" height="180.000000" viewBox="0 0 180 180" fill="none" xmlns="http://www.w3.org/2000/svg" xmlns:xlink="http://www.w3.org/1999/xlink">
	<desc>
			Created with Pixso.
	</desc>
	<defs>
		<linearGradient x1="0.000000" y1="89.999985" x2="179.999954" y2="89.999985" id="paint_linear_2201_385_0" gradientUnits="userSpaceOnUse">
			<stop stop-color="#F7941D"/>
			<stop offset="1.000000" stop-color="#27AAE1"/>
		</linearGradient>
	</defs>
	<path id="Vector" d="M177.94 46.47C180.68 44 180.68 39.9 177.94 37.16L142.67 1.84C140.21 -0.62 135.83 -0.62 133.37 1.84L94.54 40.72C92.08 43.18 87.71 43.18 85.24 40.72L46.41 1.84C43.95 -0.62 39.58 -0.62 37.12 1.84L1.84 37.16C-0.62 39.62 -0.62 44 1.84 46.47L40.67 85.34C43.13 87.8 43.13 92.19 40.67 94.65L1.84 133.52C-0.62 135.99 -0.62 140.37 1.84 142.83L37.12 178.15C39.58 180.61 43.95 180.61 46.41 178.15L85.24 139.27C87.71 136.81 92.08 136.81 94.54 139.27L133.37 178.15C135.83 180.61 140.21 180.61 142.67 178.15L177.94 142.83C180.41 140.37 180.41 135.99 177.94 133.52L139.11 94.65C136.65 92.19 136.65 87.8 139.11 85.34L177.94 46.47ZM140.35 2.56Q140.84 2.84 141.25 3.26L176.53 38.57Q177.51 39.55 177.84 40.72Q178 41.3 178 41.92Q178 42.74 177.71 43.44Q177.37 44.3 176.61 44.98L176.57 45.02L137.7 83.93Q136.71 84.92 136.12 86.1Q135.27 87.84 135.27 90Q135.27 92.15 136.12 93.89Q136.71 95.07 137.7 96.06L176.53 134.94Q176.94 135.35 177.22 135.84Q177.79 136.85 177.79 138.18Q177.79 139.51 177.22 140.52Q176.94 141.01 176.53 141.42L141.25 176.73Q140.84 177.15 140.35 177.43Q139.34 178 138.02 178Q136.7 178 135.69 177.43Q135.2 177.15 134.79 176.73L95.96 137.86Q94.96 136.87 93.77 136.28Q92.04 135.42 89.89 135.42Q87.74 135.42 86.01 136.28Q84.82 136.87 83.83 137.86L45 176.73Q44.58 177.15 44.09 177.43Q43.09 178 41.77 178Q40.44 178 39.44 177.43Q38.95 177.15 38.53 176.73L3.26 141.42Q2.84 141.01 2.57 140.52Q2 139.51 2 138.18Q2 136.85 2.57 135.84Q2.84 135.35 3.26 134.94L42.09 96.06Q43.07 95.07 43.66 93.89Q44.52 92.15 44.52 90Q44.52 87.84 43.66 86.1Q43.07 84.92 42.09 83.93L3.26 45.05Q2.84 44.64 2.57 44.15Q2 43.15 2 41.81Q2 40.48 2.57 39.47Q2.84 38.98 3.26 38.57L38.53 3.26Q38.95 2.84 39.44 2.56Q40.44 2 41.77 2Q43.09 2 44.09 2.56Q44.58 2.84 45 3.26L83.83 42.13Q84.82 43.12 86.01 43.71Q87.74 44.57 89.89 44.57Q92.04 44.57 93.77 43.71Q94.96 43.12 95.96 42.13L134.79 3.26Q135.2 2.84 135.69 2.56Q136.7 2 138.02 2Q139.34 2 140.35 2.56Z" fill="url(#paint_linear_2201_385_0)" fill-opacity="1.000000" fill-rule="evenodd"/>
</svg>
