<svg width="100.000000" height="100.000000" viewBox="0 0 100 100" fill="none" xmlns="http://www.w3.org/2000/svg" xmlns:xlink="http://www.w3.org/1999/xlink">
	<desc>
			Created with Pixso.
	</desc>
	<defs>
		<linearGradient x1="0.000000" y1="49.999992" x2="99.999977" y2="49.999992" id="paint_linear_2201_389_0" gradientUnits="userSpaceOnUse">
			<stop stop-color="#F7941D"/>
			<stop offset="1.000000" stop-color="#27AAE1"/>
		</linearGradient>
	</defs>
	<path id="Vector" d="M98.86 20.64L79.26 1.02C77.89 -0.35 75.46 -0.35 74.09 1.02L52.52 22.62C51.15 23.99 48.72 23.99 47.36 22.62L25.78 1.02C24.42 -0.35 21.99 -0.35 20.62 1.02L1.02 20.64C-0.35 22.01 -0.35 24.44 1.02 25.81L22.59 47.41C23.96 48.78 23.96 51.21 22.59 52.58L1.02 74.18C-0.35 75.55 -0.35 77.98 1.02 79.35L20.62 98.97C21.99 100.34 24.42 100.34 25.78 98.97L47.36 77.37C48.72 76 51.15 76 52.52 77.37L74.09 98.97C75.46 100.34 77.89 100.34 79.26 98.97L98.86 79.35C100.22 77.98 100.22 75.55 98.86 74.18L77.28 52.58C75.92 51.21 75.92 48.78 77.28 47.41L98.86 25.81C100.38 24.44 100.38 22.16 98.86 20.64ZM77.61 2.25Q77.74 2.33 77.84 2.44L97.44 22.05Q97.86 22.47 97.96 22.95Q98 23.12 98 23.28Q98 23.54 97.91 23.77Q97.79 24.08 97.52 24.33L97.48 24.36L75.87 46Q75.19 46.68 74.8 47.49Q74.26 48.61 74.26 50Q74.26 51.38 74.8 52.5Q75.19 53.31 75.87 53.99L97.44 75.59Q98.03 76.18 98.03 76.76Q98.03 77.35 97.44 77.94L77.84 97.56Q77.74 97.66 77.61 97.74Q77.23 98 76.68 98Q76.12 98 75.74 97.74Q75.61 97.66 75.51 97.56L53.94 75.96Q53.25 75.28 52.43 74.88Q51.32 74.34 49.94 74.34Q48.56 74.34 47.44 74.88Q46.62 75.28 45.94 75.96L24.37 97.56Q24.26 97.66 24.14 97.74Q23.75 98 23.2 98Q22.65 98 22.26 97.74Q22.14 97.66 22.03 97.56L2.44 77.94Q1.85 77.35 1.85 76.76Q1.85 76.18 2.44 75.59L24.01 53.99Q24.69 53.31 25.08 52.5Q25.62 51.38 25.62 50Q25.62 48.61 25.08 47.49Q24.69 46.68 24.01 46L2.44 24.4Q1.85 23.81 1.85 23.23Q1.85 22.64 2.44 22.05L22.03 2.44Q22.14 2.33 22.26 2.25Q22.65 2 23.2 2Q23.75 2 24.14 2.25Q24.26 2.33 24.37 2.44L45.94 24.03Q46.62 24.71 47.44 25.11Q48.56 25.65 49.94 25.65Q51.32 25.65 52.43 25.11Q53.25 24.71 53.94 24.03L75.51 2.44Q75.61 2.33 75.74 2.25Q76.12 2 76.68 2Q77.23 2 77.61 2.25Z" fill="url(#paint_linear_2201_389_0)" fill-opacity="1.000000" fill-rule="evenodd"/>
</svg>
